<?xml version="1.0" encoding="iso-8859-1"?>
<!-- Generator: Adobe Illustrator 19.0.0, SVG Export Plug-In . SVG Version: 6.00 Build 0)  -->
<svg version="1.1" id="Capa_1" xmlns="http://www.w3.org/2000/svg" xmlns:xlink="http://www.w3.org/1999/xlink" x="0px" y="0px"
	 viewBox="0 0 512 512" style="enable-background:new 0 0 512 512;" xml:space="preserve">
<g>
	<g>
		<g>
			<circle cx="169.184" cy="228.571" r="54.857"/>
			<path d="M288.041,128c0.007-1.061-0.193-2.112-0.589-3.096c-0.304-0.676-0.615-1.351-0.909-2.027
				c-1.713-2.537-4.584-4.046-7.645-4.019H123.469v18.286c0,5.049-4.093,9.143-9.143,9.143s-9.143-4.093-9.143-9.143v-18.286H86.898
				v18.286c0,5.049-4.093,9.143-9.143,9.143c-5.049,0-9.143-4.093-9.143-9.143v-18.286h-9.143c-5.047,0.005-9.138,4.095-9.143,9.143
				v82.286h48.122c5.223-20.413,19.018-37.57,37.835-47.053c18.816-9.483,40.814-10.365,60.329-2.419v-5.385
				c0.012-10.094,8.192-18.274,18.286-18.286h36.571c10.094,0.012,18.274,8.192,18.286,18.286v18.286
				c-0.012,10.094-8.192,18.274-18.286,18.286h-19.04c3.318,5.725,5.839,11.878,7.49,18.286h48.122L288.041,128z"/>
			<path d="M251.469,155.429h-36.571v16.137c0.859,0.69,1.676,1.422,2.502,2.149h34.069V155.429z"/>
			<path d="M288.041,228.571h-45.714c0,40.396-32.747,73.143-73.143,73.143c-40.396,0-73.143-32.747-73.143-73.143H50.327V320
				c0.005,5.047,4.095,9.138,9.143,9.143h219.429c5.047-0.005,9.138-4.096,9.143-9.143v-8.767c-2.78-7.663-4.273-15.734-4.42-23.885
				c-0.238-8.982,1.263-17.926,4.42-26.338V228.571z"/>
			<path d="M311.264,237.446c4.341-1.223,8.897-1.483,13.349-0.763v-53.613c-6.086-7.571-12.359-15.896-18.286-24.725v81.155
				C307.908,238.671,309.56,237.984,311.264,237.446z"/>
			<path d="M293.405,2.433c-4.672-1.589-9.571-2.411-14.507-2.433H59.469C34.234,0.03,13.785,20.479,13.755,45.714v9.143H274.65
				C275.092,35.818,281.67,17.431,293.405,2.433z M178.327,36.571h-54.857c-5.049,0-9.143-4.093-9.143-9.143
				c0-5.049,4.093-9.143,9.143-9.143h54.857c5.049,0,9.143,4.093,9.143,9.143C187.469,32.478,183.376,36.571,178.327,36.571z
				 M221.389,33.92c-1.754,1.667-4.071,2.614-6.491,2.651c-0.614-0.017-1.225-0.078-1.83-0.183
				c-0.572-0.102-1.125-0.287-1.643-0.549c-0.585-0.201-1.14-0.479-1.652-0.826c-0.478-0.336-0.934-0.701-1.366-1.094
				c-0.807-0.889-1.456-1.91-1.92-3.018c-0.976-2.214-0.976-4.737,0-6.951c0.464-1.107,1.113-2.126,1.92-3.014l1.366-1.098
				c0.512-0.347,1.067-0.625,1.652-0.826c0.517-0.263,1.071-0.447,1.643-0.544c3.012-0.614,6.132,0.311,8.321,2.469
				c0.807,0.888,1.456,1.907,1.92,3.013c0.469,1.1,0.718,2.282,0.732,3.478C224.004,29.849,223.058,32.166,221.389,33.92z"/>
			<path d="M292.791,64c0,0.073-0.04,0.133-0.041,0.205c0.143,10.093,1.357,20.141,3.622,29.978
				c5.306,27.029,26.395,57.506,43.752,78.942c0.122,0.119,0.202,0.266,0.317,0.392c4.482,5.521,8.69,10.425,12.313,14.5
				c-2.079-12.877,1.089-26.051,8.797-36.574c8.834-11.016,22.228-17.376,36.348-17.259h0.286
				c11.42,0.116,22.441,4.215,31.161,11.589c5.994-9.72,15.193-17.043,26.009-20.706c2.441-0.789,4.942-1.381,7.478-1.77
				c20.438-27.249,26.459-56.385,15.049-74.98c-7.343-11.302-19.426-18.653-32.839-19.978c-16.557-1.242-32.728,5.406-43.625,17.933
				c-2.325,2.443-5.806,3.408-9.057,2.511c-3.251-0.897-5.744-3.511-6.488-6.8c-2.91-16.335-13.377-30.329-28.223-37.737
				c-12.188-5.738-26.323-5.628-38.42,0.299c-17.176,8.997-26.641,31.308-26.472,59.285C292.757,63.89,292.791,63.94,292.791,64z"/>
			<path d="M485.3,145.246c-7.203-4.571-16.096-5.613-24.161-2.83c-10.061,3.6-17.752,11.854-20.634,22.143
				c-1.106,3.187-3.874,5.508-7.205,6.04c-3.333,0.553-6.697-0.796-8.723-3.5c-5.94-8.884-15.817-14.337-26.5-14.63h-0.17
				c-8.473-0.078-16.53,3.67-21.929,10.201c-10.152,13.063-5.473,37.701,11.402,59.911c10.107,14.116,32.089,29.205,60.893,41.982
				c23.411-21.098,39.607-42.263,44.75-58.589C502.228,179.371,499.023,154.5,485.3,145.246z"/>
			<path d="M365.934,276.496c-5.59-1.593-11.605-0.358-16.116,3.308c-2.772,1.944-6.392,2.197-9.408,0.658s-4.934-4.62-4.985-8.006
				c0.321-5.806-2.208-11.403-6.777-15c-2.542-1.882-5.614-2.912-8.777-2.942c-1.178-0.004-2.35,0.16-3.482,0.487
				c-5.075,2.012-9.009,6.152-10.761,11.322l-0.054,0.146c-2.651,6.625-3.9,13.727-3.667,20.858
				c1.362,14.651,6.132,28.78,13.929,41.259c14.598-0.988,28.766-5.358,41.384-12.763c13.688-9.603,20.965-22.223,17.893-30.835
				C373.509,280.904,370.129,277.777,365.934,276.496z"/>
			<path d="M310.871,347.442c-3.223,0.001-6.208-1.695-7.857-4.464c-0.975-1.64-2.044-3.501-3.152-5.503
				c-5.156,6.275-12.842,9.925-20.964,9.954H59.469C44.328,347.412,32.057,335.142,32.041,320V128
				c0.017-15.142,12.287-27.412,27.429-27.429h219.429c0.071,0,0.137,0.027,0.209,0.028c-0.199-0.879-0.456-1.765-0.628-2.64
				c-1.846-8.168-3.073-16.464-3.67-24.817H13.755v365.714h310.857v-93.035c-4.836,0.752-9.278,1.257-12.929,1.584
				C311.416,347.429,311.139,347.442,310.871,347.442z M50.327,365.714h54.857c5.049,0,9.143,4.093,9.143,9.143
				c0,5.049-4.093,9.143-9.143,9.143H50.327c-5.049,0-9.143-4.093-9.143-9.143C41.184,369.808,45.277,365.714,50.327,365.714z
				 M297.184,420.571H50.327c-5.049,0-9.143-4.093-9.143-9.143s4.093-9.143,9.143-9.143h246.857c5.049,0,9.143,4.093,9.143,9.143
				S302.233,420.571,297.184,420.571z"/>
			<path d="M13.755,466.286c0.03,25.235,20.479,45.685,45.714,45.714h219.429c25.235-0.03,45.685-20.479,45.714-45.714v-9.143
				H13.755V466.286z M132.612,475.429h73.143c5.049,0,9.143,4.093,9.143,9.143c0,5.049-4.093,9.143-9.143,9.143h-73.143
				c-5.049,0-9.143-4.093-9.143-9.143C123.469,479.522,127.563,475.429,132.612,475.429z"/>
		</g>
	</g>
</g>
<g>
</g>
<g>
</g>
<g>
</g>
<g>
</g>
<g>
</g>
<g>
</g>
<g>
</g>
<g>
</g>
<g>
</g>
<g>
</g>
<g>
</g>
<g>
</g>
<g>
</g>
<g>
</g>
<g>
</g>
</svg>
